<svg width="30" height="30" xmlns="http://www.w3.org/2000/svg" xml:space="preserve" version="1.1">

 <g>
  <title>Layer 1</title>
  <path id="svg_1" fill="none" d="m0,0l30,0l0,30l-30,0l0,-30z" class="st0"/>
  <g id="svg_2">
   <path id="svg_3" fill="#ffffff" d="m2.2,25.8c0.1,-1.1 0.3,-2 0.4,-2.9c0,-4.7 0,-9.4 0,-14.1c0,-0.4 0,-0.7 0,-1.2c1.6,0 3.1,0 4.8,0c0,-0.7 0,-1.3 0,-2.1c1.5,0 2.9,0 4.3,0c0.6,0 1,0 1.3,-1c0.3,-0.9 0.9,-1.3 1.7,-1.3s1.4,0.5 1.6,1.5c0.2,0.6 0.4,0.8 0.9,0.8c1.7,0 3.4,0 5.1,0c0,0.7 0,1.3 0,2c1.4,0 2.8,0 4.2,0c0,2.2 0,4.4 0,6.5c0.1,0.1 0.1,0.1 0.2,0.2c0.1,-0.2 0.4,-0.4 0.4,-0.6c0,-2.1 0,-4.3 0,-6.4c0,-0.2 -0.2,-0.4 -0.2,-0.6c0,-0.5 0,-1.1 0.2,-1.5c0.1,-0.2 0.8,-0.2 0.9,0c0.2,0.3 0.2,1 0.2,1.5c0,0 -0.1,0.1 -0.1,0.2c0,2.7 -0.6,5.5 0.3,8.1c0.4,1.2 0,2.5 -0.9,2.6c-0.3,0.1 -0.6,0 -1.1,0c0.1,2.8 0.2,5.5 0.3,8.3c-0.2,0 -0.5,0 -0.8,0c-2.4,0 -4.7,0 -7.1,0c-0.4,0 -0.8,0.2 -1.1,0.4c-2.1,1.5 -4.1,1.5 -6.2,0c-0.3,-0.2 -0.7,-0.4 -1.1,-0.4c-2.4,0 -4.8,0 -7.2,0c-0.3,0 -0.6,0 -1,0zm1.9,-16.1c0,3.6 0,7.2 0,10.7c2.2,0 4.3,0 6.4,0c0,-3.6 0,-7.1 0,-10.7c-2.1,0 -4.3,0 -6.4,0zm7.1,0c0,3.6 0,7.2 0,10.7c2.2,0 4.3,0 6.4,0c0,-3.6 0,-7.1 0,-10.7c-2.1,0 -4.2,0 -6.4,0zm7.2,0c0,3.6 0,7.2 0,10.7c2.2,0 4.3,0 6.4,0c0,-3.6 0,-7.1 0,-10.7c-2.1,0 -4.3,0 -6.4,0zm-0.8,14.9c-1.1,-1.4 -5.3,-1.3 -6,0.1c1,1.3 4.9,1.3 6,-0.1z" class="st1"/>
   <path id="svg_4" fill="#ffffff" d="m22.7,18.2c0,0.1 0,0.1 0,0l-2.2,0.1l0,-0.1l1.6,-4.6l-1.1,0l0,1c0,0.1 0,0.2 0,0.2l-1.3,0c0,0 -0.1,0 -0.1,-0.1l0,-2.5c0,-0.1 0,-0.1 0.1,-0.1l4.5,0c0,0 0.1,0.1 0,0.2l-1.5,5.9z" class="st1"/>
   <path id="svg_5" fill="#ffffff" d="m15.4,18.2c0,0.1 -0.1,0.1 0,0l-2.2,0.1l0,-0.1l1.6,-4.6l-1.2,0l0,1c0,0.1 0,0.2 0,0.2l-1.3,0c0,0 -0.1,0 -0.1,-0.1l0,-2.5c0,-0.1 0,-0.1 0.1,-0.1l4.5,0c0,0 0.1,0.1 0,0.2l-1.4,5.9z" class="st1"/>
   <path id="svg_6" fill="#ffffff" d="m8.1,18.2c0,0.1 0,0.1 0,0l-2.2,0.1l0,-0.1l1.6,-4.6l-1.1,0l0,1c0,0.1 0,0.2 0,0.2l-1.4,0c0,0 -0.1,0 -0.1,-0.1l0,-2.5c0,-0.1 0,-0.1 0.1,-0.1l4.5,0c0,0 0.1,0.1 0,0.2l-1.4,5.9z" class="st1"/>
  </g>
 </g>
</svg>