<svg width="400" height="400" xmlns="http://www.w3.org/2000/svg" aria-hidden="true" focusable="false" data-prefix="fab" data-icon="whatsapp" class="svg-inline--fa fa-whatsapp fa-w-14" role="img">
 <g>
  <title>Layer 1</title>
  <path stroke="null" fill="#37af48" d="m325.97903,72.44063c-33.10848,-33.1875 -77.20045,-51.44063 -124.05804,-51.44063c-96.71786,0 -175.41965,78.70179 -175.41965,175.41965c0,30.89598 8.05982,61.08081 23.38929,87.70982l-24.89063,90.87054l93.00402,-24.41652c25.60179,13.98616 54.44331,21.33482 83.83795,21.33482l0.07902,0c96.63884,0 177.07902,-78.70179 177.07902,-175.41965c0,-46.85759 -19.9125,-90.87054 -53.02098,-124.05804zm-124.05804,269.92501c-26.23393,0 -51.91473,-7.03259 -74.27679,-20.30759l-5.2942,-3.16071l-55.15447,14.46027l14.69732,-53.81116l-3.47679,-5.53125c-14.6183,-23.23125 -22.28304,-50.01831 -22.28304,-77.59554c0,-80.36116 65.42679,-145.78795 145.86697,-145.78795c38.9558,0 75.54107,15.17143 103.03929,42.74866c27.49822,27.57723 44.40804,64.1625 44.32902,103.11831c0,80.44018 -67.08616,145.86697 -147.44733,145.86697zm79.96607,-109.20268c-4.34598,-2.2125 -25.91786,-12.80089 -29.94777,-14.22321c-4.02991,-1.50134 -6.95357,-2.2125 -9.87723,2.2125c-2.92366,4.425 -11.29955,14.22321 -13.90714,17.22589c-2.52857,2.92366 -5.13616,3.31875 -9.48214,1.10625c-25.75982,-12.87991 -42.66964,-22.9942 -59.65848,-52.15179c-4.50402,-7.74375 4.50402,-7.19063 12.87991,-23.94241c1.42232,-2.92366 0.71116,-5.45223 -0.39509,-7.66473c-1.10625,-2.2125 -9.87723,-23.78438 -13.51205,-32.55536c-3.5558,-8.53393 -7.19063,-7.34866 -9.87723,-7.5067c-2.52857,-0.15804 -5.45223,-0.15804 -8.37589,-0.15804c-2.92366,0 -7.66473,1.10625 -11.69464,5.45223c-4.02991,4.425 -15.32946,15.01339 -15.32946,36.58527c0,21.57188 15.72455,42.43259 17.85804,45.35625c2.2125,2.92366 30.89598,47.17366 74.90893,66.21697c27.81429,12.01071 38.71875,13.03795 52.62589,10.98348c8.45491,-1.26429 25.91786,-10.58839 29.55268,-20.86071c3.63482,-10.27232 3.63482,-19.0433 2.52857,-20.86071c-1.02723,-1.97545 -3.95089,-3.0817 -8.29688,-5.21518z" id="svg_1"/>
 </g>

</svg>