<svg width="400" height="400" xmlns="http://www.w3.org/2000/svg" aria-hidden="true" focusable="false" data-prefix="fas" data-icon="home" class="svg-inline--fa fa-home fa-w-18" role="img">
 <g>
  <title>Layer 1</title>
  <path stroke="null" fill="#ffffff" d="m193.64091,136.97437l-117.477,96.75589l0,104.42754a10.19489,10.19489 0 0 0 10.19489,10.19489l71.40247,-0.18479a10.19489,10.19489 0 0 0 10.14392,-10.19489l0,-60.98457a10.19489,10.19489 0 0 1 10.19489,-10.19489l40.77956,0a10.19489,10.19489 0 0 1 10.19489,10.19489l0,60.93997a10.19489,10.19489 0 0 0 10.19489,10.22675l71.37698,0.19752a10.19489,10.19489 0 0 0 10.19489,-10.19489l0,-104.49764l-117.45152,-96.6858a7.76723,7.76723 0 0 0 -9.74886,0l-0.00002,0.00001zm185.56614,65.76342l-53.26831,-43.90812l0,-88.2559a7.64617,7.64617 0 0 0 -7.64617,-7.64617l-35.68212,0a7.64617,7.64617 0 0 0 -7.64617,7.64617l0,46.26569l-57.04679,-46.93473a30.58468,30.58468 0 0 0 -38.86802,0l-161.28955,132.83306a7.64617,7.64617 0 0 0 -1.01949,10.76835l16.24811,19.7526a7.64617,7.64617 0 0 0 10.77473,1.03861l149.87764,-123.44739a7.76723,7.76723 0 0 1 9.74886,0l149.88401,123.44739a7.64617,7.64617 0 0 0 10.76835,-1.01949l16.24811,-19.7526a7.64617,7.64617 0 0 0 -1.08321,-10.78747z" id="svg_1"/>
 </g>

</svg>