<svg width="400" height="400" xmlns="http://www.w3.org/2000/svg" fill="none">
 <g>
  <title>Layer 1</title>
  <path id="svg_1" fill="#FE5000" d="m295.81173,83.1785c-62.72312,-4.50782 -132.58976,-4.50782 -195.30828,0c-13.13248,0.94296 -23.08189,10.99357 -24.07085,23.28428c-3.16467,39.41124 -3.58786,98.45451 -0.68537,137.82435c0.96136,13.00369 12.37811,24.16744 27.8289,24.16744l48.41769,0l0,59.73324l-48.32109,-0.0322c-44.33305,0 -84.12148,-32.8611 -87.55754,-79.47106c-3.12788,-42.43332 -2.70009,-104.54927 0.71297,-147.01019c3.41766,-42.55752 37.63571,-75.14263 79.38826,-78.14171c65.57501,-4.71021 138.29813,-4.71021 203.88234,0c41.74795,2.99908 75.966,35.58419 79.38366,78.14171c3.41307,42.46092 3.26587,104.57687 0.13799,147.01019c-3.44066,46.60996 -43.1371,79.60445 -87.47014,79.60445l-47.81971,-0.0368l-92.33675,59.73324l0,-59.79764l92.33675,-59.73324l47.82891,0c15.44619,0 26.86294,-11.16376 27.8243,-24.16744c2.89789,-39.36984 3.05888,-98.41311 -0.1058,-137.82435c-0.98896,-12.29071 -10.93377,-22.34132 -24.06625,-23.28428l0.00001,0.00001z" stroke="null"/>
 </g>

</svg>