<svg width="400" height="400" xmlns="http://www.w3.org/2000/svg" fill="#fff">

 <g>
  <title>Layer 1</title>
  <path id="svg_1" d="m138.896,109.123c1.092,1.148 2.802,2.83 5.041,3.418c1.147,0 2.297,0.531 3.39,0c0,0 -0.562,-2.801 0,-5.099c0,-0.53 0.588,-1.735 0.588,-1.735s-1.146,-0.533 -2.828,-0.533l-3.389,0c-1.151,0 -2.24,0.533 -2.802,0.533c-0.588,0 -1.147,0.588 -1.147,0.588l0,0c0,-0.001 0,1.147 1.147,2.828l0,0z"/>
  <path stroke="null" fill="#ffffff" id="svg_2" d="m253.13735,185.67215c2.3626,0.74727 3.97232,1.5746 4.76313,1.5746c0,-0.82733 -0.79081,-0.82733 -0.79081,-1.5746c-1.60972,-4.71959 -0.7866,-9.51784 -0.7866,-9.51784c-5.58906,-1.61253 -9.52065,-0.78941 -11.13599,0.82593c0.79081,4.71959 4.76594,7.15945 7.95026,8.69191zm90.44477,79.31159c-1.61112,0 -2.482,0 -3.97513,-0.74586c-5.54271,-0.82593 -11.13318,-0.82593 -17.50603,-0.82593c-2.28254,0 -3.97232,0 -6.21694,0.82593c-1.72911,0 -3.22505,0.74586 -4.83618,0.74586c-13.45505,3.22646 -28.52402,7.94464 -48.314,25.37342c-2.47778,3.18853 -5.62699,6.29138 -9.59931,8.77338c-2.40053,0.74586 -4.76032,2.31906 -7.16085,2.31906c-3.14639,0 -6.29138,0 -10.30725,-1.5732l0,0c-0.74586,0.74727 -1.53387,0.74727 -2.3626,1.5732l0,0l-0.788,0l-0.82733,0c-1.53668,0.86385 -2.31906,1.61253 -4.71959,2.3612l0,0c-1.5746,0.74867 -2.3598,0.74867 -3.97232,1.61112l0,0c-1.57179,0 -3.14639,0.86666 -4.76313,0.86666l0,0l-3.14639,0l-0.82593,0l-3.14639,0l-0.788,0c-1.61253,0 -2.40053,-0.86666 -3.97232,-0.86666l0,0c-0.78941,0 -1.61253,0 -2.40053,-0.86245l0,0c-1.53527,-0.74867 -3.14639,-0.74867 -3.97232,-1.49454l-0.78941,0c-0.7866,0 -0.7866,-0.74867 -1.61112,-0.74867c-0.74867,0 -0.74867,0 -1.53387,-0.86104c-1.61253,-0.82874 -3.1492,-1.5746 -4.76173,-2.32047c0,0 -0.78941,0 -0.78941,-0.79081c-0.82593,0 -0.82593,-0.82593 -1.61112,-0.82593c-0.82593,0 -0.82593,-0.86385 -1.5732,-0.86385c-0.788,-0.74586 -1.5732,-0.74586 -2.40053,-1.49454c-0.788,-0.86245 -1.53387,-1.61112 -3.14639,-2.43705c0,0 -0.788,0 -0.788,-0.78941l0,0l-0.82593,-0.74446c-0.78941,-0.82733 -2.3626,-1.69259 -3.14639,-2.43845s-1.61253,-0.74727 -2.40053,-1.49313l-0.74727,-0.86385l0,0l0,0l0,-0.82593l-0.82593,-0.788l-0.78941,-0.74867s0,-0.74586 -0.7866,-0.74586l-0.82593,-0.82874l-0.78941,-0.86385c0,-0.74586 -0.788,-0.74586 -0.788,-1.49313l0,-0.788c0,-0.82874 -0.788,-0.82874 -0.788,-1.69259l0,0c0,-0.74727 -0.7866,-1.49313 -0.7866,-1.49313l0,0c-0.7866,-0.86666 -0.7866,-1.61112 -1.61112,-2.43705l0,0c-1.53387,-3.22786 -3.1478,-6.33633 -4.76032,-10.27073l0,0c-3.9358,-9.51925 -7.08079,-22.15117 -7.08079,-34.97132l0,0c0,-3.10987 0.7866,-7.0836 1.53387,-10.27073l0,0c0.7866,-2.3626 0.7866,-3.97232 1.61112,-6.33774l0,0c0.78941,-3.18572 2.3612,-7.16085 3.9358,-10.34236l0,0c1.61112,-2.3626 2.39772,-4.72099 4.76032,-7.0836l0,0c0.82593,1.61253 1.61112,2.3626 2.39772,3.97513s2.3626,3.10847 3.18853,3.9344c1.5732,1.60972 2.39913,3.14358 3.9344,4.83618l1.61253,1.49454c0.788,0.74586 2.3598,1.61112 3.14639,3.18572l0,0c3.22646,3.22927 6.37285,5.58906 10.34517,8.69332l0,0l0,3.18853l0.78941,15.07038l0,0l0,0l0,0c0,2.47919 0,5.58766 0.7866,7.94745l2.3626,11.87904c2.39772,8.73546 7.16085,16.64217 13.49157,23.84095c0,0 0,0.83014 0.788,0.83014l0,0c0.788,0.74446 2.40053,2.27973 3.18853,3.10566l0,0l0,0c1.5746,0.86526 2.3626,2.36401 3.97513,3.10847l0,0c1.57179,0.86666 2.3598,1.69259 3.97232,2.43705l0.788,0l4.76032,2.36401c0.74867,0 0.74867,0 1.5746,0.86385c1.5746,0.74727 2.40053,1.49313 3.97232,1.49313c1.5746,0.86385 3.97513,1.69259 6.33493,2.48059c-7.12012,-3.22646 -13.49297,-7.94605 -17.42737,-12.74711c-1.61112,-1.60972 -2.39772,-3.10566 -3.22365,-4.79825c-7.12293,-10.27073 -8.69472,-22.97429 -9.52205,-30.92315l0,-3.9344l0,-6.33774c10.34798,4.80106 19.04411,4.80106 25.41696,3.10987c1.60972,0 2.39772,-0.74727 3.9344,-0.74727c7.16226,-2.3626 11.91977,-7.16085 14.27957,-9.51784c2.40053,-0.82733 4.76173,-2.3612 7.16226,-3.9358c1.5746,-1.61112 3.18713,-3.10847 3.97232,-4.83758c0,-0.74586 0.86526,-0.74586 0.86526,-1.49313s0,-0.74586 0.74586,-1.60972l0,-3.18853l0,0l0,0c3.9344,-3.10847 6.29279,-7.90672 4.68307,-14.99032c0.78941,-4.79825 -0.74867,-8.77338 -2.32047,-11.96051c-0.86526,-1.61112 -1.61112,-3.10847 -2.3626,-3.97232c-0.74586,-1.5746 -1.61112,-2.36401 -1.61112,-2.36401l0,2.36401l0,2.3612l0,1.61112c-1.61112,11.09244 -4.76173,18.17323 -5.54692,21.39969l0,1.5746l0,-1.5746c0,-12.6249 -4.76173,-19.0413 -7.11731,-21.39969c-0.82593,-0.86526 -1.61253,-0.86526 -1.61253,-0.86526c-3.97232,9.64004 -9.51925,15.93424 -12.66985,19.0427l0,-3.9344c0,-1.53527 0,-2.28254 -0.7866,-3.14639c-0.82874,-3.18994 -1.61112,-5.54692 -2.43986,-7.16226c-1.53527,-2.31906 -3.14639,-3.9344 -3.14639,-3.9344l-0.78941,0.82593c-0.7866,0.78941 -1.60972,1.53527 -3.14499,3.10847l-0.82733,0.86385c-0.78941,0.74727 -2.3598,2.36401 -3.14499,3.10847l-4.01025,4.05379l0,0s3.22365,-8.02611 -3.93721,-19.86723c-0.78941,0.82593 -0.78941,0.82593 -1.5746,1.57039c-0.78519,0.78941 -0.78519,0.78941 -1.61112,1.53668c-1.5732,0.82733 -3.9344,2.43845 -7.08079,3.9344c-1.61112,0.86526 -2.43705,0.86526 -4.01165,1.69119l0,-1.69119l0,-3.9344c0.788,-3.97373 0.788,-7.94605 0.788,-7.94605s-0.788,0.86526 -1.61253,1.61112c-0.74586,0.86385 -2.3598,1.61253 -3.9344,2.3612c-2.3598,1.69259 -4.76032,4.80106 -5.58625,5.66491c-0.74727,-0.86385 -0.74727,-1.69119 -1.53668,-2.43845l0,0l-7.16085,-14.35963c-1.57179,-3.9358 -3.14639,-8.65539 -3.97232,-12.62771c-0.788,-2.31906 -0.788,-3.9344 -1.53527,-6.37285c0,-1.53527 -0.82593,-3.10847 -0.82593,-4.71959c0.82593,0.74586 2.3612,1.61112 3.18713,3.18713c3.14639,2.3612 6.33493,3.97373 10.30725,5.58766c3.97513,1.5746 7.12152,2.32047 11.05592,3.10847c1.61112,0.82593 4.01165,0.82593 5.58766,0.82593l4.76173,0l0.788,0c1.61253,0.74586 3.18853,1.61253 3.97232,2.3612c1.5746,0.74727 3.93721,1.61112 6.33493,1.61112l1.61253,0s0.788,0.82593 1.5746,0.82593c0.7866,0.78941 1.57039,0.78941 2.39772,1.53668c0.788,0.74586 2.3626,1.57179 3.9344,1.57179c0.82593,0 1.61112,0.86666 2.40053,0.86666c1.5746,0 2.3626,0.74586 3.97232,0.74586l0,-0.74586c0,-0.86666 0,-1.69259 -0.7866,-3.18853c-0.82874,-2.47778 -0.82874,-4.83898 -1.61112,-6.41078c0,-0.788 -0.82874,-1.53387 -0.82874,-1.53387c-0.74586,-0.82874 -3.9358,0 -11.05311,3.97232c-0.78941,-0.86666 -0.78941,-1.61253 -1.61253,-3.22646c-0.788,-2.32047 -2.39772,-3.9344 -2.39772,-6.37285c0,0 -1.53668,-0.788 -3.93721,1.69119c-0.78941,0.74727 -2.3598,1.49313 -3.18853,3.10706l-0.788,0l-0.788,0l-4.76032,-0.74586c-1.5732,-0.86666 -3.97373,-0.86666 -5.58906,-1.61112c-3.9344,-0.74727 -7.08079,-2.43845 -10.26792,-3.97373c-3.18713,-1.5732 -6.33493,-3.9344 -9.52065,-6.41078l-3.18713,-3.10847c-0.74727,-0.82593 -2.3612,-2.3612 -3.14639,-3.9344l-0.82593,-0.86385l-3.9344,-7.16226c1.5732,1.69259 3.1478,3.22646 6.33352,3.97373c1.5732,0.82593 3.97373,0.82593 5.54692,0.82593c0,0 0,0.86385 0.788,0.86385c0.788,0.74867 1.61112,2.3626 3.18853,3.10987c3.18713,2.3598 6.33352,4.79965 8.73405,5.54552c-2.40053,-9.51925 1.61112,-11.87904 3.9344,-15.06757l0,0l0,0l0,0c0,7.16085 3.97232,13.45505 6.37285,15.81625c0,-2.3612 0.82593,-5.46967 1.5732,-7.90672l2.39913,-7.16226c0.78941,-2.24321 1.53527,-3.9358 2.3612,-4.72099l0,0c2.40053,10.38591 8.69472,20.65383 11.09244,22.26776c0,-4.83758 2.40053,-11.87904 3.18994,-14.3189c0.788,-2.3612 0.788,-3.22646 0.788,-7.16226l0.788,0c1.60972,3.9358 6.37285,12.70778 8.73546,18.2547c0.78941,1.61253 0.78941,2.44126 1.61253,3.22646c0.788,-0.788 1.53387,-1.61253 3.14358,-2.48059c6.33774,-7.04146 7.90953,-15.81484 7.90953,-20.53443c1.60972,14.24164 6.37004,26.94942 8.77057,30.92315c3.14639,-2.43845 6.2956,-6.41218 9.51925,-10.38872c0.74727,-0.74586 1.49313,-2.3598 2.36401,-3.10706c1.57039,-2.3612 3.9358,-4.79965 5.54552,-7.16085l0.74586,0c0,1.61112 0.86526,4.79965 0.86526,8.77198l0,3.97513l0,2.3612c0,2.31906 0,3.9344 -0.86526,5.54552l0,0c1.61112,-0.74586 3.22646,-2.43705 5.66351,-3.97232c3.10847,-2.43845 6.21834,-6.41078 8.65539,-10.34658l0,0l0,0l0.74727,0l0,0l0,0c0,0.82593 0,2.43986 0.74586,4.79965c0.86385,4.79965 0.86385,12.70778 0.86385,15.81625c4.80106,-3.10847 11.13599,-8.73405 14.24445,-20.6159l0,-0.74727c3.9358,-2.3612 4.79825,-4.72099 4.79825,-7.16085l0,-0.788c0,0.788 -5.54552,1.53387 -6.33493,1.53387c7.16085,-3.10847 13.49438,-7.90672 17.46951,-14.24024c0,0 0.82593,-0.74727 0.82593,-1.61253c2.28254,-3.18713 3.97513,-6.29419 4.71959,-9.40266c1.49454,-3.97373 3.18994,-8.02611 3.9358,-11.96051l0,-1.61253c0,-1.49454 0.78941,-2.3598 0.78941,-3.97373c1.5732,-6.29419 2.43705,-12.62912 2.43705,-19.0413c0,-3.9344 0,-8.65539 -0.86385,-12.62912l-2.3626,-11.84111c-1.57179,-4.05239 -2.43845,-8.02611 -4.68026,-11.99843c-0.86666,-0.82593 -1.69259,-1.5746 -1.69259,-2.3612c-0.78941,-0.74727 -1.53527,-1.5732 -2.28254,-2.43845c-1.68978,-1.49454 -3.18713,-3.10847 -4.79825,-4.72099c-2.3612,-1.5746 -4.80106,-2.32187 -8.02471,-2.32187c0,0 -2.24602,0 -3.10987,0.74727c0,0 -0.82593,0 -0.82593,0.82593l-0.74727,0.74727c-0.78941,0.7866 -1.53527,1.61253 -3.22786,1.61253c-3.10847,2.3612 -6.29138,5.54692 -8.65399,8.77338c-1.61112,1.49454 -2.47919,3.10706 -3.97232,4.72099c-1.61112,1.5732 -2.43705,3.18713 -3.18713,4.68167l0,0l-0.74867,0.86526c-0.788,0.86526 -1.61112,0.86526 -2.47778,1.61253c-2.24461,1.49454 -5.47107,3.18713 -7.90953,3.9344c-1.49454,0.7866 -3.18572,1.53387 -4.72099,1.53387c-11.91837,3.9344 -26.94942,6.41218 -45.98651,3.18713c2.3598,1.61253 5.54552,3.22505 8.73265,3.97373c0.78941,0 2.36401,0.82593 3.1492,0.82593c1.61112,0 2.3598,0.74727 3.97092,1.61253c1.61253,0.74727 2.40053,2.3612 2.40053,3.97373c0,1.49454 -0.788,3.18713 -0.788,4.68167c-0.82593,1.61253 -1.61253,2.47778 -2.43845,3.22505c-0.788,0.74727 -2.31906,1.49454 -3.14499,2.3612c-2.36401,0.82593 -5.54692,1.5732 -7.91093,1.5732c-2.39772,0 -3.97092,0 -6.37145,-0.74727c0.82593,2.3612 0.82593,4.72099 0,7.16085c0,1.53387 -0.78941,2.28254 -1.57179,3.97373l0,0c-3.97513,6.21553 -12.70778,7.08219 -19.04411,3.97373c-0.82593,-0.86526 -1.5746,-0.86526 -2.3612,-1.73052c-1.61112,-1.49454 -3.1478,-3.9344 -3.97373,-6.21553l0,0c0,-0.82593 -0.7866,-1.69259 -0.7866,-2.43845l0,-5.54692l0,-1.61253c-1.61112,0.74727 -3.22646,1.61253 -3.97373,2.43845c-0.788,0.74727 -1.5732,1.53387 -2.40053,3.10847c-1.53387,2.3598 -2.3598,4.79965 -3.14639,7.15945l0,0.86526l0,7.08219c0,2.32047 0.788,3.9344 1.61253,6.29419c-0.82593,-1.49454 -1.61253,-3.10847 -2.40053,-4.72099c-0.82593,-1.5746 -0.82593,-3.18713 -1.61253,-4.68167l0,-3.22646c0,-4.72099 2.40053,-10.34658 5.54692,-13.57304c0.82733,-0.74727 1.61253,-1.49454 2.40053,-2.24321c0.74727,-0.86526 2.3626,-1.69119 3.97373,-2.47778l1.61112,-0.74727l0,0c0.74586,0 1.53387,-0.74727 1.53387,-0.74727c1.61253,0 2.40053,-0.86526 3.97513,-0.86526c5.54692,-0.82593 10.30725,2.3612 14.27957,3.97373c3.9358,1.61253 8.73686,2.3612 12.70778,2.3612c2.3612,0 3.97232,0 5.54692,-0.74727s3.18994,-2.43845 3.97232,-3.22505c0.74586,-0.74727 0.74586,-1.49454 0.74586,-2.3612c0,-0.82593 0,-0.82593 -0.74586,-1.5732c-0.788,-1.53387 -3.22646,-1.53387 -5.54692,-2.3612c-3.97232,-1.61253 -7.94324,-3.97373 -10.34377,-8.02471c-0.78941,-0.74727 -2.40053,-2.24321 -3.9358,-3.10847c-3.97513,-2.3598 -8.73546,-5.54692 -14.28238,-5.54692l-2.39772,0c-3.97513,0.74727 -8.73546,3.18713 -11.88185,5.54692c-1.61253,0.86526 -2.40053,1.61253 -3.14639,3.10847c-3.22646,3.22505 -5.58906,7.15945 -7.16085,10.38591c-2.3626,7.90672 -6.37285,18.2547 -26.20215,22.97429c-1.5732,-1.49454 -5.50619,-4.72099 -10.26651,-7.90672c-1.61253,-0.74727 -2.40053,-1.61253 -3.97513,-3.18713c-19.8279,-12.62771 -55.54789,-26.94802 -96.77688,0.82593c12.66845,3.97373 38.86779,11.01519 57.12249,48.35052c0.788,0.74727 0.788,2.43845 1.5746,3.18853c-1.5746,2.3598 -6.37285,11.13318 -9.52065,24.62755c-1.5746,6.29138 -2.3612,13.45364 -3.18713,21.36036l0,3.97513c0,7.16085 0.82593,15.06757 1.61253,22.97148c1.5746,7.16085 3.1478,15.10831 5.54692,23.01503c0,0.74867 -0.82593,1.61112 -1.61253,2.43705c-3.14639,3.97513 -8.73405,12.62771 -7.08079,21.40109c1.53387,0 3.9344,0 6.29419,0.74586c1.5746,0.86385 3.22646,0.86385 3.9344,1.61253c0.82593,0.74586 2.43845,1.57179 2.43845,2.3598c-1.61253,0.82593 -2.43845,0.82593 -3.14639,0.82593c-1.65186,0.74867 -4.01306,1.53668 -4.79965,1.53668s-1.5746,0.82874 -1.5746,0.82874s-1.61253,3.10566 -1.61253,9.51644c0,3.18853 0,7.90812 0.82593,12.62771c1.5746,8.77338 5.50759,19.04411 14.24164,31.75048c-1.5732,-10.26932 -0.7866,-22.15117 4.76032,-31.75048c0.82593,-0.74586 0.82593,-1.49313 1.61253,-2.27973c0.7866,-1.69259 1.5732,-2.43986 3.1478,-4.0552l0.7866,-0.74586l3.1478,-3.18853l3.22505,-2.3612l11.88044,-9.51784c1.5732,-1.61253 3.97373,-3.97513 5.54692,-6.2956c0.82593,-1.60972 1.61253,-2.47778 3.18853,-3.97232c0,-0.86385 0.78519,-0.86385 0.78519,-1.69259c0.788,-0.74305 1.61253,-2.27973 1.61253,-3.10566c0.74727,-0.86526 0.74727,-1.61253 1.53387,-3.10847l0,-1.69259c0.82593,-1.53387 0.82593,-3.10847 0.82593,-5.46826l0,0l0,-7.16226c0,-2.482 -0.82593,-5.58906 -0.82593,-7.94605c0,-2.43845 0,-5.54692 0.82593,-7.90672c0.78941,-2.43845 1.5746,-5.62839 3.18853,-7.90953c0,2.28114 0,5.47107 0.74727,7.90953c0.78941,2.3598 0.78941,4.71678 1.61112,7.08079c0.788,3.18853 1.61253,7.16085 2.3626,10.26932l0,4.79825l0,0.86666c0,3.10566 -0.74727,6.29138 -1.5746,8.65258c-0.788,1.61112 -1.61253,3.22646 -1.61253,3.97513c-0.788,0.74446 -0.788,1.57179 -1.53387,2.43705l-0.788,0.74446c-0.82593,0.74867 -0.82593,1.61112 -1.61253,2.36401c-2.39913,3.97232 -5.54692,7.16226 -8.73405,10.26792c-3.97373,3.97513 -8.69472,7.16366 -13.45505,9.59931l-0.82593,0.788c0.82593,0.74867 2.3612,2.32047 3.97232,3.9358c5.54692,5.58766 14.28238,13.49297 27.73602,22.26916c6.37566,3.9358 14.28238,7.90812 23.01643,11.84252c1.61112,0.74446 2.40053,0.74446 3.97373,1.61112c5.54692,2.3612 11.09244,3.97232 17.4681,6.33633a162.02522,162.02522 0 0 1 7.12012,2.43705c13.45505,3.9344 27.77254,6.21694 45.20272,8.65539c3.18853,0 5.58906,0.74305 8.73546,0.74305l0.78941,0s0,0.86666 0.82593,0.86666c0.74867,1.60972 2.3612,4.79825 4.01165,8.77338c0,0.74586 0.74586,0.74586 0.74586,1.49313c0.74586,2.43705 2.3626,3.97373 3.9344,6.41218c7.94745,11.87764 23.01643,26.95083 51.57838,34.10747c0,0 -24.62755,-28.64342 -19.04411,-64.28616c12.70778,-15.81765 19.87004,-22.97429 26.95083,-28.64061c1.5746,-0.74727 3.18994,-2.24461 5.54552,-3.9344c1.61253,-1.53668 3.97513,-3.11128 6.41218,-4.72099c1.49313,-0.74727 3.10987,-2.3626 4.71959,-3.22646c0.74586,-0.74727 2.3598,-1.49313 3.18853,-2.3626c0.74586,-0.74586 1.53387,-0.74586 1.53387,-1.57179c1.5746,-0.74867 2.43845,-1.53668 3.18994,-2.3626c5.54692,-3.97232 10.34377,-7.08079 10.34377,-7.08079s-11.08963,1.53527 -18.25189,0.74867zm-231.59985,-81.66998c1.53387,5.54692 3.97373,10.26792 6.33352,15.06898c0.7866,1.61112 1.5732,3.9358 3.18713,5.54692c1.53387,3.22646 3.97513,6.33493 6.33493,8.69191c-1.5746,-1.53387 -3.1478,-3.22646 -4.80106,-5.47107c-5.50619,-6.41078 -10.30584,-11.99984 -13.45364,-19.90515c-0.788,-1.5746 -1.5746,-3.10847 -1.5746,-4.80106c-0.7866,-1.49313 -0.7866,-2.3612 -0.7866,-3.97232c0,-0.74727 0,-1.49313 -0.7866,-2.31906c0,-1.61253 -0.7866,-3.10847 -0.7866,-4.83898c-0.82593,-6.21694 -1.61253,-14.20231 -0.82593,-23.72296c0,0 0.82593,9.51784 3.97373,21.48116c0,1.49313 0.788,3.10566 0.788,4.71819c0.7866,1.5732 0.7866,3.18853 1.61253,4.68167c-0.0014,1.61534 -0.0014,3.22786 0.78519,4.84179zm190.33433,-153.15492l0,0l0,0l0,0zm-117.397,77.85498l7.16085,0l3.97513,0c7.90672,-0.86526 13.45224,-1.69259 16.64217,-2.47919c15.06757,-2.32047 29.34995,-14.3203 38.8692,-22.22843l7.90953,-7.90672l0.788,-0.74727l0.82593,-0.74727c5.58766,-4.83898 10.30725,-11.13318 15.02824,-16.79809l2.43565,-3.10847l3.18853,-3.10706l1.53668,-2.43986c1.57179,-1.49454 2.43845,-3.22505 3.9358,-4.72099l3.97232,-3.9344c3.18572,-2.47919 5.66351,-4.83898 8.77198,-7.19878c0.82733,-0.74727 1.57179,-0.74727 2.3612,-1.5732l0.74727,0l0,0l0,0c1.68978,0 2.43845,0.82593 3.18713,1.5732c0.74867,0.7866 2.43845,2.3612 3.22786,3.22646c0.74446,0.74727 0.74446,1.49454 1.5732,2.24181c0.7866,0.86526 1.61112,1.73052 1.61112,2.47919c1.49313,2.3612 3.22505,6.41218 3.97232,10.34658c0.74586,3.97373 1.49454,7.08219 2.3612,11.01519c0.82593,4.05239 0.82593,7.15945 0.82593,11.13318c0,5.54692 -0.82593,11.13318 -1.68978,16.6801c0,1.49454 -0.74727,2.3612 -0.74727,3.97373l0,1.49454c-0.74586,4.05239 -1.49313,7.16085 -3.22646,11.13318c-1.49313,3.9344 -2.32047,7.16085 -3.9358,10.34658c0,0.74727 -0.74446,0.74727 -0.74446,1.61253c-0.78941,1.61253 -1.61112,3.10566 -3.22786,3.9344c-3.18713,3.97232 -7.16085,7.94464 -11.88185,10.30725c-1.57039,0 -3.9344,0.74586 -5.54552,0.74586c-0.86385,0 -1.60972,0 -1.60972,-0.74586c-1.49313,-0.788 -3.18853,-1.53387 -4.68026,-2.3626c-2.48059,-0.86385 -4.72099,-2.3598 -7.16366,-3.10566c-7.19878,-3.22646 -13.49157,-6.41218 -20.65242,-8.77479c-2.3626,-0.86526 -5.509,-1.61253 -7.90953,-2.3612c-2.3612,-0.86526 -4.76173,-0.86526 -7.11591,-0.86526c-11.13599,-0.82593 -21.44604,0.86526 -30.96248,3.22646c-1.61253,0.74727 -3.97373,0.74727 -5.54692,1.61253c-0.74586,0 -0.74586,0.74727 -1.5732,0.74727c-1.61112,0.74586 -2.40053,0.74586 -4.01165,1.5746c-0.74727,0 -0.74727,0.86385 -1.53387,0.86385c-0.82593,0 -0.82593,0.74867 -1.61253,0.74867l-4.76032,2.3598c-2.3626,0.86666 -5.54692,2.3626 -7.12012,2.3626c-1.5746,0.74586 -3.18994,0.74586 -4.76173,0.74586l-3.9344,0c-1.61253,0 -3.22646,0 -4.80106,-0.74586c-2.3598,-0.74586 -3.18713,-0.74586 -3.18713,-0.74586l0,0.74586l0,-0.74586l0,0l0,0l0.82593,9.51925l0,0l0,3.9344l0,2.3626c0,1.61112 0.7866,3.97232 0.7866,5.58625c0.788,6.29279 3.1478,13.45364 5.54692,19.86863c1.5732,3.97232 3.18853,7.90672 5.54692,11.87904c0.788,1.49454 1.5732,3.18994 2.39913,3.9344c2.40053,3.97513 5.54692,7.94745 9.52065,11.88185c0,0 0.788,0.74867 1.57179,0.74867c6.33633,6.41078 14.28238,10.38591 22.1891,13.57163c0,0 0.82733,0 0.82733,0.74586c3.14499,1.60972 6.33493,3.97232 10.30725,5.58906c1.5746,0.74586 3.1478,1.57179 4.76032,1.57179c5.5104,1.53668 11.88185,3.22646 18.21818,2.3626c3.97232,0 7.94745,-0.82593 11.09244,-2.3626c0.78941,0 1.61112,-0.82593 1.61112,-0.82593l0,1.61253l0,0.74586c0,0.82593 -0.82593,1.68978 -0.82593,1.68978c-0.788,1.49313 -2.3626,3.10847 -3.93721,3.97232c-3.18853,2.24461 -6.37285,3.10847 -10.34517,3.9344c-3.9344,0.74867 -7.90672,1.49313 -11.84111,1.49313l-3.97513,0c-2.40053,0 -4.01025,0 -6.37285,-0.74446c-6.33493,-0.74867 -11.88185,-3.18994 -17.42596,-6.41078c-1.61253,-0.74586 -2.40053,-1.49313 -3.9344,-2.24461l0,0c-6.37285,-4.05379 -11.91977,-8.77338 -17.50884,-13.57163l-0.788,-0.74867c-0.74586,-0.74305 -1.57179,-1.60972 -2.3598,-2.43565c-2.40053,-2.28254 -3.97513,-3.97232 -5.54692,-6.33493l-7.16085,-9.52065c-1.5746,-2.3598 -3.18853,-3.9344 -3.97513,-6.29138c-0.74586,-1.61253 -1.5746,-3.22646 -2.3612,-3.97373c-1.61112,-2.3612 -3.18713,-5.54692 -4.76173,-8.02611c0,-0.74727 -0.788,-0.74727 -0.788,-1.49454c-0.82593,-0.74586 -0.82593,-1.61253 -1.61253,-2.43845c-3.14639,-6.21694 -6.29279,-11.88185 -8.73265,-18.17323c-1.53527,-3.97373 -2.32187,-7.08219 -3.1492,-11.13458l0,-8.77198l0,-0.74727c0,-0.74586 0,-1.49454 0.82733,-2.3626c0,-0.82593 0,-0.82593 0.788,-1.61112c4.72099,-15.81484 20.57517,-19.78857 26.94802,-19.78857l0,0c3.14499,2.35558 7.90531,3.22084 12.66423,3.22084zm-96.73896,80.09819s6.33352,16.56211 30.92174,34.85474c-7.12012,-1.61253 -27.77395,-15.06476 -30.92174,-34.85474zm40.44239,-3.97232c-0.7866,-1.69259 -2.3612,-3.18853 -3.1478,-4.05239c-3.22365,-4.72099 -5.58625,-9.52065 -7.15945,-14.99032c-0.788,-1.68978 -0.788,-4.05379 -0.788,-5.62418c-0.7866,-8.69472 0,-19.04411 5.50759,-30.92455c0.82593,-1.49454 1.65186,-3.97373 2.43845,-5.54692c0,0 -2.43845,13.45505 0,31.75048c0.7866,7.90672 3.14639,17.42596 6.29279,26.94942c0.82593,1.61253 0.82593,3.18572 1.61253,3.97232c1.61112,3.9344 3.97232,8.73546 7.11872,12.70778l-11.87483,-14.24164zm70.57754,-105.55307s-0.7866,0 0,0c-1.61112,0 -1.61112,-0.74727 -2.3612,-1.5732c0,-0.86526 -0.788,-0.86526 -0.788,-1.61253l0,0.74727l0,2.43845c0,0.7866 0,1.61253 0.788,3.22646c0.74586,3.18713 3.97232,5.46826 6.33493,5.46826c0.788,0 1.5732,0 2.39913,-0.74727c1.53527,-0.7866 2.3612,-1.53387 3.1478,-3.22646c0.7866,-1.49454 0.7866,-2.3598 0.7866,-3.9344l0,-1.53387c-1.5732,0 -3.14499,-0.82593 -5.54552,-1.69119c-0.788,0 -1.53527,-0.74727 -1.53527,-0.74727l0,0c0,1.61253 -1.61253,3.18572 -3.22646,3.18572z"/>
 </g>
</svg>