<svg width="25.851" height="25.851" xmlns="http://www.w3.org/2000/svg" xml:space="preserve" version="1.1">

 <g>
  <title>Layer 1</title>
  <g id="svg_1">
   <path id="svg_2" fill="#ffffff" d="m23.167,4.481l-4.715,-1.248l0,2.069l4.202,1.112c0.534,0.142 0.852,0.691 0.711,1.223l-4.092,15.469c-0.142,0.531 -0.691,0.852 -1.225,0.711l-3.227,-0.854c-0.123,0.012 -0.242,0.037 -0.369,0.037l-7.09,0c0.162,0.076 0.33,0.144 0.509,0.191l9.667,2.559c1.602,0.425 3.244,-0.531 3.668,-2.133l4.093,-15.467c0.423,-1.601 -0.531,-3.245 -2.132,-3.669z"/>
   <path id="svg_3" fill="#ffffff" d="m14.452,0l-11,0c-1.656,0 -3,1.344 -3,3l0,16c0,1.656 1.344,3 3,3l11,0c1.656,0 3,-1.344 3,-3l0,-16c0,-1.656 -1.344,-3 -3,-3zm1,19c0,0.551 -0.449,1 -1,1l-11,0c-0.551,0 -1,-0.449 -1,-1l0,-16c0,-0.551 0.449,-1 1,-1l11,0c0.551,0 1,0.449 1,1l0,16zm-2.111,-7.586c0,1.385 -0.927,2.265 -2.251,2.268c-0.685,0 -1.378,-0.463 -1.771,-0.847c0,0 0.368,1.703 1.039,2.991c0.087,0.167 -2.86,0.171 -2.781,0.002c0.653,-1.396 1.019,-2.993 1.019,-2.993c-0.394,0.366 -1.15,0.852 -1.783,0.853c-1.321,0.001 -2.254,-0.877 -2.256,-2.26c-0.002,-2.318 4.372,-5.357 4.372,-5.357l0.024,0c0,0 4.384,3.027 4.388,5.343zm0.055,-8.278c-0.017,-0.042 -0.032,-0.076 -0.052,-0.1s-0.061,-0.036 -0.123,-0.036l-0.569,0c-0.061,0 -0.102,0.012 -0.122,0.034c-0.021,0.021 -0.039,0.054 -0.054,0.096l-0.87,2.753c-0.017,0.052 -0.018,0.083 -0.006,0.097s0.036,0.02 0.069,0.02l0.5,0c0.044,0 0.076,-0.011 0.101,-0.028c0.023,-0.018 0.043,-0.049 0.058,-0.098l0.162,-0.551l0.898,0l0.149,0.537c0.015,0.047 0.03,0.084 0.048,0.105c0.017,0.023 0.053,0.035 0.104,0.035l0.56,0c0.033,0 0.053,-0.011 0.059,-0.028s0.006,-0.043 -0.005,-0.08l-0.907,-2.756zm-0.753,1.642l0.135,-0.504l0.149,-0.548l0.021,0l0.146,0.552l0.135,0.5l-0.586,0zm-6.954,11.222c-0.052,0 -0.087,0.012 -0.104,0.034c-0.018,0.022 -0.033,0.059 -0.048,0.106l-0.149,0.537l-0.899,0l-0.162,-0.551c-0.015,-0.049 -0.034,-0.08 -0.058,-0.098c-0.024,-0.017 -0.056,-0.028 -0.1,-0.028l-0.5,0c-0.033,0 -0.057,0.007 -0.068,0.021s-0.011,0.045 0.006,0.097l0.87,2.753c0.015,0.042 0.033,0.074 0.054,0.096c0.02,0.021 0.061,0.033 0.121,0.033l0.568,0c0.063,0 0.104,-0.012 0.124,-0.036c0.02,-0.023 0.035,-0.058 0.052,-0.1l0.906,-2.756c0.011,-0.037 0.011,-0.063 0.005,-0.08s-0.025,-0.028 -0.058,-0.028l-0.56,0zm-0.594,1.722l-0.146,0.552l-0.021,0l-0.149,-0.548l-0.135,-0.504l0.586,0l-0.135,0.5z"/>
   <path id="svg_4" fill="#ffffff" d="m21.344,7.259c-0.004,-0.045 -0.012,-0.081 -0.023,-0.109c-0.014,-0.029 -0.051,-0.051 -0.111,-0.066l-0.549,-0.148c-0.057,-0.016 -0.1,-0.016 -0.125,0c-0.027,0.017 -0.053,0.043 -0.077,0.079l-1.558,2.43c-0.031,0.047 -0.039,0.075 -0.031,0.093c0.007,0.016 0.027,0.028 0.06,0.037l0.483,0.131c0.042,0.011 0.076,0.01 0.104,-0.002c0.027,-0.01 0.055,-0.035 0.082,-0.078l0.3,-0.49l0.867,0.234l0.005,0.558c0,0.049 0.007,0.089 0.018,0.114c0.012,0.027 0.042,0.047 0.093,0.061l0.54,0.146c0.032,0.009 0.054,0.005 0.064,-0.012c0.01,-0.015 0.016,-0.04 0.016,-0.078l-0.158,-2.9zm-1.155,1.39l0.262,-0.453l0.287,-0.489l0.02,0.006l-0.003,0.57l-0.001,0.519l-0.565,-0.153z"/>
  </g>
 </g>
</svg>